<svg width="251" height="238" viewBox="0 0 251 238" fill="none" xmlns="http://www.w3.org/2000/svg">
<rect width="251" height="238" rx="100" fill="#EADDFF"/>
<path fill-rule="evenodd" clip-rule="evenodd" d="M163.152 95.2C163.152 114.917 146.295 130.9 125.502 130.9C104.708 130.9 87.8515 114.917 87.8515 95.2C87.8515 75.4834 104.708 59.5 125.502 59.5C146.295 59.5 163.152 75.4834 163.152 95.2ZM150.602 95.2C150.602 108.344 139.364 119 125.502 119C111.639 119 100.402 108.344 100.402 95.2C100.402 82.0556 111.639 71.4 125.502 71.4C139.364 71.4 150.602 82.0556 150.602 95.2Z" fill="#21005D"/>
<path d="M125.502 148.75C84.8748 148.75 50.2597 171.529 37.074 203.443C40.2861 206.467 43.6699 209.328 47.2102 212.011C57.0289 182.711 87.8309 160.65 125.502 160.65C163.172 160.65 193.974 182.711 203.793 212.011C207.333 209.328 210.717 206.467 213.929 203.443C200.743 171.529 166.128 148.75 125.502 148.75Z" fill="#21005D"/>
</svg>
