<svg width="18" height="18" viewBox="0 0 18 18" fill="none" xmlns="http://www.w3.org/2000/svg">
<mask id="path-1-inside-1_0_21" fill="white">
<path d="M6.75 14.25C3 15.375 3 12.375 1.5 12L6.75 14.25ZM12 16.5V13.5975C12.0281 13.2399 11.9798 12.8804 11.8583 12.5429C11.7367 12.2053 11.5447 11.8976 11.295 11.64C13.65 11.3775 16.125 10.485 16.125 6.39001C16.1248 5.34289 15.722 4.33591 15 3.57751C15.3419 2.66139 15.3177 1.64878 14.9325 0.750014C14.9325 0.750014 14.0475 0.487514 12 1.86001C10.281 1.39413 8.46899 1.39413 6.75 1.86001C4.7025 0.487514 3.8175 0.750014 3.8175 0.750014C3.43228 1.64878 3.40811 2.66139 3.75 3.57751C3.0226 4.34154 2.61939 5.35761 2.625 6.41251C2.625 10.4775 5.1 11.37 7.455 11.6625C7.20825 11.9175 7.01795 12.2216 6.89648 12.555C6.77502 12.8883 6.72511 13.2436 6.75 13.5975V16.5"/>
</mask>
<path d="M7.89939 18.0813C10.0154 17.4465 11.2161 15.2166 10.5813 13.1006C9.94651 10.9847 7.71658 9.78392 5.60061 10.4187L7.89939 18.0813ZM2.47014 8.11944C0.326963 7.58365 -1.84478 8.88669 -2.38057 11.0299C-2.91637 13.1731 -1.61332 15.3448 0.529858 15.8806L2.47014 8.11944ZM8 16.5C8 18.7092 9.79086 20.5 12 20.5C14.2091 20.5 16 18.7092 16 16.5H8ZM12 13.5975L8.01232 13.2838C8.00411 13.3882 8 13.4928 8 13.5975H12ZM11.295 11.64L10.8519 7.66463C9.3351 7.8337 8.04671 8.85114 7.53063 10.2874C7.01455 11.7237 7.36074 13.3285 8.42305 14.4242L11.295 11.64ZM16.125 6.39001H20.125V6.38928L16.125 6.39001ZM15 3.57751L11.2525 2.17895C10.7172 3.6131 11.0474 5.22693 12.1029 6.3356L15 3.57751ZM14.9325 0.750014L18.609 -0.825781C18.1406 -1.91879 17.21 -2.74669 16.07 -3.08485L14.9325 0.750014ZM12 1.86001L10.9537 5.72074C12.0713 6.02364 13.2654 5.82735 14.2272 5.18259L12 1.86001ZM6.75 1.86001L4.52278 5.18259C5.48463 5.82735 6.6787 6.02364 7.79634 5.72074L6.75 1.86001ZM3.8175 0.750014L2.68004 -3.08485C1.53996 -2.74669 0.609446 -1.91879 0.140971 -0.825781L3.8175 0.750014ZM3.75 3.57751L6.647 6.33566C7.70254 5.22699 8.03276 3.61312 7.49754 2.17895L3.75 3.57751ZM2.625 6.41251H6.625C6.625 6.40543 6.62498 6.39834 6.62494 6.39125L2.625 6.41251ZM7.455 11.6625L10.3294 14.4442C11.384 13.3544 11.7317 11.762 11.2272 10.3319C10.7227 8.9018 9.45294 7.87993 7.94803 7.69302L7.455 11.6625ZM6.75 13.5975H10.75C10.75 13.5039 10.7467 13.4103 10.7401 13.3169L6.75 13.5975ZM2.75 16.5C2.75 18.7092 4.54086 20.5 6.75 20.5C8.95914 20.5 10.75 18.7092 10.75 16.5H2.75ZM5.60061 10.4187C5.11792 10.5635 5.15083 10.4563 5.47013 10.531C5.84094 10.6178 6.07367 10.8231 6.10968 10.8591C6.11105 10.8605 6.10005 10.8495 6.07363 10.819C6.04639 10.7874 6.0107 10.7443 5.95758 10.6778C5.89575 10.6003 5.6593 10.2955 5.47075 10.0741C5.07591 9.61061 4.10862 8.52907 2.47014 8.11944L0.529858 15.8806C-0.358625 15.6585 -0.763414 15.0925 -0.619191 15.2618C-0.538206 15.3569 -0.510988 15.3977 -0.294493 15.6689C-0.127336 15.8783 0.129196 16.1923 0.452823 16.5159C1.14508 17.2082 2.17468 17.976 3.64706 18.3205C5.06792 18.6531 6.50708 18.499 7.89939 18.0813L5.60061 10.4187ZM16 16.5V13.5975H8V16.5H16ZM15.9877 13.9112C16.0603 12.9876 15.9356 12.0591 15.6216 11.1875L8.0949 13.8982C8.02408 13.7016 7.99593 13.4922 8.01232 13.2838L15.9877 13.9112ZM15.6216 11.1875C15.3077 10.3158 14.8118 9.52098 14.167 8.85579L8.42305 14.4242C8.27758 14.2742 8.16571 14.0949 8.0949 13.8982L15.6216 11.1875ZM11.7381 15.6154C13.1403 15.4591 15.3282 15.0603 17.1674 13.5137C19.2011 11.8037 20.125 9.30254 20.125 6.39001H12.125C12.125 7.01775 12.0296 7.3116 11.9941 7.39919C11.9692 7.46065 11.9742 7.42815 12.0188 7.39068C12.0426 7.37067 11.9987 7.4178 11.7975 7.48373C11.5873 7.55264 11.2849 7.61637 10.8519 7.66463L11.7381 15.6154ZM20.125 6.38928C20.1246 4.31555 19.3269 2.32135 17.8971 0.819426L12.1029 6.3356C12.1171 6.35047 12.125 6.37022 12.125 6.39075L20.125 6.38928ZM18.7475 4.97608C19.4491 3.09625 19.3995 1.01842 18.609 -0.825781L11.256 2.32581C11.236 2.27913 11.2347 2.22653 11.2525 2.17895L18.7475 4.97608ZM14.9325 0.750014C16.07 -3.08485 16.0661 -3.08599 16.0622 -3.08713C16.061 -3.08751 16.0571 -3.08865 16.0545 -3.0894C16.0493 -3.09091 16.0441 -3.09242 16.0389 -3.09392C16.0285 -3.09692 16.018 -3.0999 16.0074 -3.10285C15.9863 -3.10876 15.9648 -3.11456 15.9431 -3.12026C15.8995 -3.13166 15.8548 -3.14261 15.8089 -3.15304C15.7171 -3.17391 15.621 -3.19264 15.5204 -3.20867C15.319 -3.24079 15.1027 -3.2617 14.8723 -3.26804C14.4092 -3.28079 13.9064 -3.23431 13.3672 -3.1146C12.2959 -2.87678 11.1063 -2.35649 9.77278 -1.46256L14.2272 5.18259C14.9412 4.70402 15.2178 4.66931 15.101 4.69526C15.039 4.70902 14.8853 4.73535 14.6522 4.72893C14.5367 4.72575 14.4056 4.71463 14.2605 4.6915C14.1882 4.67996 14.113 4.66554 14.0352 4.64784C13.9963 4.639 13.9568 4.62935 13.9167 4.61887C13.8967 4.61362 13.8766 4.60817 13.8563 4.60251C13.8461 4.59968 13.836 4.59679 13.8258 4.59385C13.8206 4.59238 13.8155 4.5909 13.8104 4.58941C13.8079 4.58866 13.804 4.58753 13.8027 4.58715C13.7989 4.58602 13.795 4.58488 14.9325 0.750014ZM13.0463 -2.00071C10.6421 -2.6523 8.10785 -2.6523 5.70366 -2.00071L7.79634 5.72074C8.83013 5.44056 9.91987 5.44056 10.9537 5.72074L13.0463 -2.00071ZM8.97722 -1.46256C7.64366 -2.35649 6.45408 -2.87678 5.38285 -3.1146C4.84365 -3.23431 4.34078 -3.28079 3.87772 -3.26804C3.64727 -3.2617 3.43101 -3.24079 3.22957 -3.20867C3.12905 -3.19264 3.03286 -3.17391 2.94106 -3.15304C2.89518 -3.14261 2.85048 -3.13166 2.80695 -3.12026C2.78519 -3.11456 2.76373 -3.10876 2.74257 -3.10285C2.732 -3.0999 2.7215 -3.09692 2.71108 -3.09392C2.70586 -3.09242 2.70067 -3.09091 2.6955 -3.0894C2.69291 -3.08865 2.68905 -3.08751 2.68776 -3.08713C2.6839 -3.08599 2.68004 -3.08485 3.8175 0.750014C4.95496 4.58488 4.95111 4.58602 4.94727 4.58715C4.94599 4.58753 4.94214 4.58866 4.93958 4.58941C4.93446 4.5909 4.92935 4.59238 4.92425 4.59385C4.91404 4.59679 4.90387 4.59968 4.89372 4.60251C4.87344 4.60817 4.85328 4.61362 4.83326 4.61887C4.7932 4.62935 4.75372 4.639 4.71482 4.64784C4.63698 4.66554 4.56181 4.67996 4.48949 4.6915C4.34444 4.71463 4.21332 4.72575 4.09782 4.72893C3.86468 4.73535 3.71104 4.70902 3.64903 4.69526C3.53217 4.66931 3.80884 4.70402 4.52278 5.18259L8.97722 -1.46256ZM0.140971 -0.825781C-0.649473 1.01842 -0.699077 3.09625 0.00246477 4.97608L7.49754 2.17895C7.51529 2.22653 7.51404 2.27913 7.49403 2.32581L0.140971 -0.825781ZM0.852998 0.819367C-0.587549 2.33244 -1.38605 4.34466 -1.37494 6.43378L6.62494 6.39125C6.62483 6.37057 6.63274 6.35064 6.647 6.33566L0.852998 0.819367ZM-1.375 6.41251C-1.375 9.32289 -0.443198 11.8103 1.58256 13.5137C3.40769 15.0484 5.57969 15.4603 6.96197 15.632L7.94803 7.69302C7.50544 7.63804 7.19467 7.57026 6.97526 7.4969C6.76462 7.42647 6.71304 7.37542 6.73119 7.39068C6.77055 7.42378 6.77607 7.45434 6.75291 7.39749C6.71931 7.315 6.625 7.02915 6.625 6.41251H-1.375ZM4.58058 8.88084C3.94332 9.53934 3.45186 10.3246 3.13816 11.1856L10.6548 13.9243C10.584 14.1185 10.4732 14.2956 10.3294 14.4442L4.58058 8.88084ZM3.13816 11.1856C2.82446 12.0466 2.69557 12.964 2.75986 13.8781L10.7401 13.3169C10.7546 13.5231 10.7256 13.73 10.6548 13.9243L3.13816 11.1856ZM2.75 13.5975V16.5H10.75V13.5975H2.75Z" fill="#1E1E1E" mask="url(#path-1-inside-1_0_21)"/>
</svg>
